<svg xmlns="http://www.w3.org/2000/svg" xmlns:xlink="http://www.w3.org/1999/xlink" fill="none" version="1.1" width="638" height="92" viewBox="0 0 638 92"><defs><filter id="master_svg0_643_41419" filterUnits="objectBoundingBox" color-interpolation-filters="sRGB" x="-16" y="-14" width="634" height="88"><feFlood flood-opacity="0" result="BackgroundImageFix"/><feColorMatrix in="SourceAlpha" type="matrix" values="0 0 0 0 0 0 0 0 0 0 0 0 0 0 0 0 0 0 127 0"/><feOffset dy="2" dx="0"/><feGaussianBlur stdDeviation="4"/><feColorMatrix type="matrix" values="0 0 0 0 0 0 0 0 0 0 0 0 0 0 0 0 0 0 0.0784313753247261 0"/><feBlend mode="normal" in2="BackgroundImageFix" result="effect1_dropShadow"/><feBlend mode="normal" in="SourceGraphic" in2="effect1_dropShadow" result="shape"/></filter><linearGradient x1="1" y1="0.5" x2="0" y2="0.5" id="master_svg1_89_5587"><stop offset="0%" stop-color="#40B0FE" stop-opacity="1"/><stop offset="100%" stop-color="#2761F3" stop-opacity="1"/></linearGradient></defs><g filter="url(#master_svg0_643_41419)"><path d="M18,28L18,33.5L18,44L18,53.5L18,60C18,66.6274,23.37258,72,30,72L600,72C606.627,72,612,66.6274,612,60L612,53.5L620,43.5L612,33.5L612,28C612,21.37258,606.627,16,600,16L30,16C23.37258,16,18,21.37258,18,28Z" fill="#FFFFFF" fill-opacity="1"/><path d="M16,28L16,60Q16,62.847,17.101011,65.45Q18.163819,67.9628,20.10051,69.8995Q22.03719,71.83619999999999,24.54996,72.899Q27.15304,74,30,74L600,74Q602.847,74,605.45,72.899Q607.963,71.83619999999999,609.899,69.8995Q611.836,67.9627,612.899,65.45Q614,62.847,614,60L614,54.2016L622.561,43.5L614,32.7984L614,28Q614,25.153019999999998,612.899,22.54996Q611.836,20.03727,609.899,18.10051Q607.963,16.163843,605.45,15.101011Q602.847,14,600,14L30,14Q27.15304,14,24.54996,15.101011Q22.03719,16.163822,20.10051,18.10051Q18.16382,20.03719,17.101011,22.54996Q16,25.15304,16,28ZM620,43.5L612,53.5L612,60C612,66.6274,606.627,72,600,72L30,72C23.37258,72,18,66.6274,18,60L18,28C18,21.37258,23.37258,16,30,16L600,16C606.627,16,612,21.37258,612,28L612,33.5L620,43.5Z" fill-rule="evenodd" fill="url(#master_svg1_89_5587)" fill-opacity="1"/></g></svg>